<svg xmlns="http://www.w3.org/2000/svg" width="18.286" height="20" viewBox="0 0 18.286 20"><defs><style>.a{fill:#1cc17d;}.b,.c{stroke:none;}.c{fill:#fff;}</style></defs><g transform="translate(-10.296 2)"><g class="a" transform="translate(0 0)"><path class="b" d="M 19.4392204284668 17.00050163269043 C 19.31863975524902 17.00050163269043 19.19826126098633 16.98617172241211 19.08139991760254 16.95791053771973 C 18.97793006896973 16.93289184570312 18.03572082519531 16.69445037841797 16.83649063110352 16.03703117370605 C 15.28528022766113 15.1866512298584 13.94574069976807 13.98663139343262 12.96268081665039 12.56670093536377 C 11.94139003753662 11.09151077270508 11.38390064239502 8.903881072998047 11.30567073822021 6.064560890197754 C 11.2483606338501 3.984121084213257 11.47417068481445 2.28852105140686 11.50010013580322 2.102031230926514 C 11.58380031585693 1.500681161880493 12.01573085784912 1.007131099700928 12.60053062438965 0.8445611000061035 L 19.03116035461426 -0.9437988996505737 C 19.16399955749512 -0.9807488918304443 19.30133056640625 -0.9994989037513733 19.43923950195312 -0.9994989037513733 C 19.57722091674805 -0.9994989037513733 19.71458053588867 -0.9807388782501221 19.84751129150391 -0.9437288641929626 L 26.27799987792969 0.844581127166748 C 26.86264991760254 1.007111072540283 27.29458045959473 1.50062108039856 27.37831115722656 2.10184121131897 C 27.4042797088623 2.288601160049438 27.63006973266602 3.984511137008667 27.5727710723877 6.064620971679688 C 27.49454116821289 8.9039306640625 26.93704986572266 11.09155082702637 25.91575050354004 12.56670093536377 C 24.93274116516113 13.98663139343262 23.59321022033691 15.18666076660156 22.04199981689453 16.03703117370605 C 20.84242057800293 16.69465065002441 19.90038108825684 16.93294143676758 19.79691123962402 16.95794105529785 C 19.67876052856445 16.9863109588623 19.55893135070801 17.00050163269043 19.4392204284668 17.00050163269043 Z"/><path class="c" d="M 19.43924331665039 0.000499725341796875 C 19.39210510253906 0.000499725341796875 19.34496116638184 0.006879806518554688 19.29909133911133 0.01963996887207031 L 12.86837005615234 1.80802059173584 C 12.66772079467773 1.863800048828125 12.51929092407227 2.033420562744141 12.49057006835938 2.239780426025391 C 12.45326995849609 2.507980346679688 11.60237121582031 8.845000267028809 13.78487014770508 11.99748039245605 C 15.96479034423828 15.14618015289307 19.18064117431641 15.95308971405029 19.31645011901855 15.98593044281006 C 19.39716911315918 16.00544929504395 19.48124885559082 16.00531005859375 19.56199073791504 15.98593044281006 C 19.6978702545166 15.95308971405029 22.91371917724609 15.14618015289307 25.09357070922852 11.99748039245605 C 27.27606964111328 8.845069885253906 26.4251708984375 2.508049964904785 26.38787078857422 2.239780426025391 C 26.35914039611816 2.033490180969238 26.21072006225586 1.863800048828125 26.01007080078125 1.80802059173584 L 19.57934951782227 0.01963996887207031 C 19.53351020812988 0.006879806518554688 19.48637962341309 0.000499725341796875 19.43924331665039 0.000499725341796875 M 18.83010101318359 10.47896957397461 C 18.69631004333496 10.47896957397461 18.56245994567871 10.42793083190918 18.46039009094238 10.3257999420166 L 15.74831962585449 7.613730430603027 C 15.65023040771484 7.515700340270996 15.59514999389648 7.38267993927002 15.59514999389648 7.244020462036133 C 15.59514999389648 7.105350494384766 15.65028953552246 6.972330093383789 15.74831962585449 6.874310493469238 L 16.28682136535645 6.335809707641602 C 16.49101829528809 6.131681442260742 16.82209777832031 6.131610870361328 17.02624130249023 6.335809707641602 L 18.83010101318359 8.139670372009277 L 22.30829048156738 4.661410331726074 C 22.40631103515625 4.563320159912109 22.53932952880859 4.50823974609375 22.67799949645996 4.50823974609375 C 22.81667137145996 4.50823974609375 22.94969177246094 4.563320159912109 23.04771041870117 4.661410331726074 L 23.58621025085449 5.199910163879395 C 23.79040908813477 5.404109954833984 23.79040908813477 5.735199928283691 23.58621025085449 5.939399719238281 L 19.19981002807617 10.3257999420166 C 19.09774971008301 10.42786026000977 18.96389007568359 10.47896957397461 18.83010101318359 10.47896957397461 M 19.43923950195312 -1.999499320983887 C 19.6678409576416 -1.999499320983887 19.89542961120605 -1.968409538269043 20.11568069458008 -1.907109260559082 L 26.54593086242676 -0.1188592910766602 C 27.51446914672852 0.150390625 28.23004150390625 0.9679498672485352 28.36875152587891 1.963900566101074 C 28.39591979980469 2.159299850463867 28.63191032409668 3.931380271911621 28.57239151000977 6.092160224914551 C 28.48873138427734 9.128690719604492 27.87153053283691 11.49855041503906 26.73794174194336 13.13591957092285 C 24.17367172241211 16.83990097045898 20.44819068908691 17.82933044433594 20.03182983398438 17.92996025085449 C 19.63836479187012 18.0244026184082 19.23241424560547 18.02326202392578 18.84634971618652 17.92990112304688 C 18.43000984191895 17.82921981811523 14.70446014404297 16.83933067321777 12.14050102233887 13.13591957092285 C 11.00690078735352 11.49851036071777 10.38971138000488 9.128629684448242 10.30605125427246 6.092100143432617 C 10.24652099609375 3.930959701538086 10.48253059387207 2.15919017791748 10.50963973999023 1.964280128479004 C 10.64829063415527 0.9680500030517578 11.36387062072754 0.1504201889038086 12.33269119262695 -0.1189107894897461 L 18.76323127746582 -1.907238960266113 C 18.98326110839844 -1.968440055847168 19.21075057983398 -1.999499320983887 19.43923950195312 -1.999499320983887 Z"/></g></g></svg>